<svg width="72" height="69" viewBox="0 0 72 69" fill="none" xmlns="http://www.w3.org/2000/svg">
<path d="M35.3021 4.4904C34.7873 4.28308 34.2127 4.28308 33.6979 4.4904L7.96088 14.834L18.3281 18.9984L44.8673 8.33406L35.3021 4.4904ZM50.6719 10.6697L24.1328 21.334L34.5 25.4983L61.0391 14.834L50.6719 10.6697ZM64.6875 18.0364L36.6562 29.303V63.6315L64.6875 52.3649V18.0364ZM32.3438 63.6359V29.2986L4.3125 18.0364V52.3692L32.3438 63.6359ZM32.0979 0.464751C33.6399 -0.154917 35.3601 -0.154917 36.9021 0.464751L67.6459 12.8234C68.0456 12.9843 68.3882 13.2619 68.6295 13.6202C68.8709 13.9786 68.9999 14.4013 69 14.834V52.3692C68.9995 53.2351 68.7408 54.081 68.2573 54.7978C67.7738 55.5145 67.0877 56.0693 66.2874 56.3905L35.3021 68.8445C34.7873 69.0518 34.2127 69.0518 33.6979 68.8445L2.71688 56.3905C1.91583 56.07 1.22881 55.5155 0.744519 54.7987C0.260224 54.0819 0.000889795 53.2356 0 52.3692V14.834C0.000100222 14.4013 0.129132 13.9786 0.370474 13.6202C0.611816 13.2619 0.954411 12.9843 1.35413 12.8234L32.0979 0.464751Z" fill="#202020"/>
<path d="M71.5 49C71.5 52.8456 69.9723 56.5338 67.2531 59.253C64.5338 61.9723 60.8456 63.5 57 63.5C53.1544 63.5 49.4662 61.9723 46.747 59.253C44.0277 56.5338 42.5 52.8456 42.5 49C42.5 45.1544 44.0277 41.4662 46.747 38.747C49.4662 36.0277 53.1544 34.5 57 34.5C60.8456 34.5 64.5338 36.0277 67.2531 38.747C69.9723 41.4662 71.5 45.1544 71.5 49ZM64.3044 43.5081C64.1749 43.3791 64.0207 43.2775 63.8511 43.2095C63.6815 43.1414 63.4999 43.1082 63.3171 43.1119C63.1344 43.1157 62.9543 43.1562 62.7876 43.2311C62.6209 43.306 62.471 43.4138 62.3469 43.548L56.0521 51.5683L52.2585 47.7729C52.0008 47.5328 51.66 47.4021 51.3078 47.4083C50.9556 47.4145 50.6196 47.5572 50.3706 47.8062C50.1215 48.0553 49.9788 48.3913 49.9726 48.7435C49.9664 49.0957 50.0971 49.4365 50.3372 49.6942L55.1331 54.4919C55.2623 54.6208 55.4162 54.7225 55.5855 54.7907C55.7548 54.8589 55.9361 54.8923 56.1187 54.8889C56.3012 54.8855 56.4811 54.8454 56.6478 54.771C56.8145 54.6965 56.9645 54.5893 57.0888 54.4556L64.3243 45.4113C64.571 45.1548 64.7073 44.8118 64.7039 44.456C64.7005 44.1002 64.5577 43.7599 64.3062 43.5081H64.3044Z" fill="#198754"/>
</svg>
